<svg xmlns="http://www.w3.org/2000/svg" xmlns:xlink="http://www.w3.org/1999/xlink" version="1.1" id="Layer_1" x="0px" y="0px" enable-background="new 0 0 1264 842" xml:space="preserve" style="background: transparent;" viewBox="330.92 122.39 603.94 590.25">

<path fill="#11BFD5" opacity="1.000000" stroke="none" d=" M535.352234,648.402405   C614.687439,602.888489 693.710388,557.567261 772.739746,512.257263   C807.127014,492.541992 841.606079,472.985382 875.891846,453.095490   C896.002686,441.428711 902.976013,418.804535 892.834290,399.401245   C889.133423,392.320557 883.776550,386.640350 876.809265,382.636719   C835.223206,358.739685 793.631775,334.851929 752.017273,311.004425   C679.336548,269.354218 606.641846,227.728439 533.942871,186.110199   C521.516418,178.996384 509.308533,171.435410 496.531036,165.013474   C467.779236,150.562897 437.935760,169.037766 437.845917,201.229233   C437.674713,262.559387 437.768707,323.890259 437.752686,385.220825   C437.752136,387.371246 437.752594,389.521667 437.752594,392.622253   C433.985291,392.622253 430.566742,392.624054 427.148224,392.621857   C419.981903,392.617249 412.802277,392.344696 405.654053,392.701477   C401.152802,392.926178 400.102753,391.373505 400.115448,387.035065   C400.271912,333.537872 400.187134,280.040009 400.280396,226.542526   C400.302460,213.888870 399.982330,201.164154 401.152222,188.596161   C404.730347,150.156601 442.260712,119.501198 480.732758,122.601265   C494.159271,123.683174 506.341522,127.792572 517.949951,134.454865   C606.204712,185.106033 694.517944,235.655350 782.815735,286.231598   C820.389404,307.753479 857.968628,329.265656 895.547180,350.778992   C947.818787,380.703949 948.045044,454.197845 895.767822,484.406647   C844.002991,514.319336 792.017090,543.849182 740.151794,573.588196   C670.374390,613.597778 600.658813,653.715576 530.811523,693.602844   C520.730713,699.359497 510.535736,705.592407 499.585358,709.031555   C455.269928,722.949524 409.975830,695.138428 401.488220,649.534607   C400.609650,644.813965 400.313995,639.923523 400.307251,635.111084   C400.219208,572.280701 400.230988,509.450104 400.228577,446.619568   C400.228546,445.471130 400.361755,444.322693 400.463470,442.678192   C402.168060,442.588562 403.776154,442.436310 405.384735,442.430573   C414.384277,442.398438 423.394623,442.659821 432.378998,442.285400   C436.963928,442.094360 437.872040,443.706635 437.861908,447.977997   C437.718414,508.474976 437.699890,568.972473 437.819458,629.469421   C437.830872,635.243286 438.147919,641.250671 439.726257,646.746643   C446.461578,670.200256 472.033020,682.053101 494.032867,671.439697   C508.101410,664.652649 521.399231,656.268127 535.352234,648.402405  z"/>
<path fill="#16BED3" opacity="1.000000" stroke="none" d=" M382.000000,424.989075   C367.674744,424.987488 353.849426,425.008545 340.024261,424.972626   C334.048004,424.957092 330.863861,422.276703 330.924347,417.476166   C330.986359,412.551605 333.991211,410.050507 340.079742,410.048859   C400.544403,410.032318 461.009094,410.037262 521.473755,410.036163   C524.294739,410.036102 527.115662,410.036194 530.799500,410.036194   C530.799500,404.362183 530.799805,398.950195 530.799316,393.538239   C530.799072,390.540009 530.741211,387.540527 530.807800,384.543793   C530.969727,377.257233 535.699646,372.365662 542.525635,372.352600   C549.202271,372.339844 554.031067,377.361603 554.099060,384.740051   C554.212646,397.065247 554.148926,409.392059 554.160217,421.718170   C554.167114,429.213715 554.284058,436.711243 554.150757,444.204285   C554.020447,451.529938 549.106934,456.736237 542.622559,456.743011   C535.776550,456.750183 530.893188,451.548126 530.807373,444.022827   C530.737671,437.902557 530.793274,431.780884 530.793274,424.988647   C480.977966,424.988647 431.738983,424.988647 382.000000,424.989075  z"/>
<path fill="#16BED3" opacity="1.000000" stroke="none" d=" M858.593994,425.003326   C817.538818,425.005554 776.937012,425.005554 735.777161,425.005554   C735.777161,429.352875 735.835938,433.139099 735.764771,436.922913   C735.622864,444.466736 730.758911,449.698364 723.969604,449.702026   C717.067078,449.705750 712.257507,444.713715 712.187195,436.975067   C712.053894,422.315155 712.057861,407.652618 712.167297,392.992401   C712.223755,385.435272 717.286194,380.157471 723.996216,380.224457   C730.783264,380.292206 735.555420,385.454651 735.723755,393.124908   C735.843140,398.565613 735.746887,404.011078 735.746887,410.015900   C738.190613,410.015900 739.976013,410.016113 741.761475,410.015869   C779.913879,410.010803 818.066223,410.005676 856.218628,410.000580   C856.885071,410.000488 857.551819,409.985779 858.217834,410.002747   C863.660522,410.141327 866.691467,412.497589 867.012817,416.832184   C867.355286,421.452698 864.630798,424.246796 858.593994,425.003326  z"/>
<path fill="#10BED3" opacity="1.000000" stroke="none" d=" M590.308105,359.978638   C590.298096,397.244446 590.321289,434.014771 590.253540,470.784943   C590.237488,479.514648 585.467285,484.403320 577.697083,484.069061   C572.036560,483.825592 567.611511,479.806732 566.944885,474.181549   C566.750000,472.537048 566.811523,470.858337 566.810791,469.195312   C566.792908,428.421570 566.782227,387.647827 566.772583,346.874084   C566.772339,345.709351 566.741821,344.540741 566.821106,343.380493   C567.269897,336.817688 572.216553,332.077393 578.529480,332.126709   C584.616089,332.174255 589.700806,336.719299 590.104675,343.013580   C590.455811,348.485229 590.261353,353.991882 590.308105,359.978638  z"/>
<path fill="#10BED3" opacity="1.000000" stroke="none" d=" M699.550903,463.171417   C699.455688,466.953156 699.495117,470.290527 699.232788,473.604004   C698.763184,479.534210 694.368591,483.724060 688.483521,484.079132   C682.451111,484.443085 677.640930,481.000458 676.333862,475.212921   C675.972473,473.612366 675.951843,471.911469 675.950562,470.256470   C675.922241,432.967041 675.945068,395.677582 675.880310,358.388275   C675.870850,352.982361 677.356995,348.504517 682.394897,345.884430   C689.497253,342.190674 698.098450,346.411835 699.063354,354.391968   C699.678162,359.476715 699.339783,364.681946 699.352722,369.833374   C699.430603,400.794312 699.486389,431.755310 699.550903,463.171417  z"/>
<path fill="#11BED3" opacity="1.000000" stroke="none" d=" M639.389343,429.000153   C639.387695,412.838043 639.372253,397.175903 639.398743,381.513885   C639.402100,379.523438 639.413696,377.493042 639.784729,375.550537   C641.002625,369.174896 645.997070,365.379059 652.308533,365.839508   C658.292480,366.276062 662.722290,370.677704 662.971436,377.016144   C663.232910,383.670990 663.067627,390.342987 663.070740,397.007507   C663.079346,415.168884 663.115967,433.330383 663.063599,451.491577   C663.040955,459.346497 658.610657,464.313965 651.639221,464.578156   C645.101257,464.825897 639.723938,459.533051 639.445374,451.991028   C639.168762,444.503601 639.387146,436.997894 639.389343,429.000153  z"/>
<path fill="#39BBCA" opacity="1.000000" stroke="none" d=" M607.525269,298.534851   C611.494263,294.973969 615.945923,294.733154 620.468872,297.083557   C625.033142,299.455444 626.943787,303.488739 626.939453,308.615601   C626.916321,335.938629 626.968811,363.261749 626.972107,390.584839   C626.976868,429.903442 626.982483,469.222076 626.939697,508.540619   C626.929932,517.506592 620.102234,523.386841 612.132385,521.478516   C606.707581,520.179504 603.253418,516.060181 602.937683,510.469788   C602.871948,509.306824 602.901550,508.138000 602.901611,506.971863   C602.903687,441.496399 602.878113,376.020844 602.999268,310.545593   C603.005127,307.375671 604.302368,304.208099 605.401001,300.920959   C605.803833,300.802429 606.046631,301.037781 605.978638,301.420654   C605.275391,305.533295 604.092957,309.262085 604.086304,312.992950   C603.972229,377.133270 604.003174,441.273865 604.002930,505.414398   C604.002930,506.747162 603.924866,508.086517 604.027649,509.411560   C604.512207,515.655396 609.524109,520.232727 615.588623,520.026001   C621.548767,519.822815 625.023071,515.808350 625.023987,508.989899   C625.032532,442.350403 625.083496,375.710693 624.851807,309.071991   C624.840576,305.850342 623.105957,300.903229 620.762329,299.823303   C617.164490,298.165527 612.339966,299.169983 607.910217,298.915344   C607.784424,298.785950 607.525269,298.534851 607.525269,298.534851  z"/>
<path fill="#39BBCA" opacity="1.000000" stroke="none" d=" M606.458984,299.498444   C606.598206,299.190887 606.809814,298.945862 607.309570,298.649139   C607.525269,298.534851 607.784424,298.785950 607.787903,299.122406   C607.587891,299.719147 607.331360,299.906769 606.884521,299.887207   C606.747375,299.752625 606.458984,299.498444 606.458984,299.498444  z"/>
<path fill="#39BBCA" opacity="1.000000" stroke="none" d=" M605.684937,300.682220   C605.668762,300.255432 605.838501,299.991974 606.267090,299.635071   C606.458984,299.498444 606.747375,299.752625 606.771118,300.099487   C606.597656,300.709534 606.348267,300.906677 606.046631,301.037781   C606.046631,301.037781 605.803833,300.802429 605.684937,300.682220  z"/>
<path fill="#0CBFD5" opacity="1.000000" stroke="none" d=" M605.978638,301.420654   C606.348267,300.906677 606.597656,300.709534 606.908264,300.234070   C607.331360,299.906769 607.587891,299.719147 607.913696,299.251770   C612.339966,299.169983 617.164490,298.165527 620.762329,299.823303   C623.105957,300.903229 624.840576,305.850342 624.851807,309.071991   C625.083496,375.710693 625.032532,442.350403 625.023987,508.989899   C625.023071,515.808350 621.548767,519.822815 615.588623,520.026001   C609.524109,520.232727 604.512207,515.655396 604.027649,509.411560   C603.924866,508.086517 604.002930,506.747162 604.002930,505.414398   C604.003174,441.273865 603.972229,377.133270 604.086304,312.992950   C604.092957,309.262085 605.275391,305.533295 605.978638,301.420654  z"/>
</svg>